mtllib UC-8.mtl
v -4.006331 -1.285867 6.545089
v -4.006331 -1.285867 1.904549
v -4.006331 2.264472 1.904549
v -4.006331 2.264472 6.545089
v -4.006331 -1.285867 6.545089
v -4.006331 -1.285160 6.038663
v -4.006331 0.890584 6.038663
v -4.006331 0.890584 4.968583
v -4.006331 -1.285160 4.968583
v -4.006331 -1.285160 6.038663
vn 1.000000 0.000000 0.000000
vn 1.000000 0.000000 0.000000
vn 1.000000 0.000000 0.000000
vn 1.000000 0.000000 0.000000
vn 1.000000 0.000000 0.000000
vn 1.000000 0.000000 0.000000
vn 1.000000 0.000000 0.000000
vn 1.000000 0.000000 0.000000
vn 1.000000 0.000000 0.000000
vn 1.000000 0.000000 0.000000
o wall_1
usemtl Material_2
f 10//10 1//1 2//2
f 9//9 10//10 2//2
f 4//4 5//5 6//6
f 4//4 6//6 7//7
f 3//3 4//4 7//7
f 3//3 7//7 8//8
f 2//2 3//3 8//8
f 9//9 2//2 8//8
v -4.106331 -1.285867 6.545089
v -4.106331 2.264472 6.545089
v -4.106331 2.264472 2.004549
v -4.106331 -1.285867 2.004549
v -4.106331 -1.285867 6.545089
v -4.106331 -1.285160 6.038763
v -4.106331 -1.285160 4.968482
v -4.106331 0.890584 4.968482
v -4.106331 0.890584 6.038763
v -4.106331 -1.285160 6.038763
vn -1.000000 0.000000 0.000000
vn -1.000000 0.000000 0.000000
vn -1.000000 0.000000 0.000000
vn -1.000000 0.000000 0.000000
vn -1.000000 0.000000 0.000000
vn -1.000000 0.000000 0.000000
vn -1.000000 0.000000 0.000000
vn -1.000000 0.000000 0.000000
vn -1.000000 0.000000 0.000000
vn -1.000000 0.000000 0.000000
o wall_4
usemtl Material_3
f 14//14 15//15 16//16
f 14//14 16//16 17//17
f 20//20 11//11 12//12
f 19//19 20//20 12//12
f 19//19 12//12 13//13
f 18//18 19//19 13//13
f 18//18 13//13 14//14
f 18//18 14//14 17//17
v -4.006331 2.264472 6.545089
v -4.006331 2.264472 1.904549
v -4.106331 2.264472 2.004549
v -4.106331 2.264472 6.545089
vn 0.000000 1.000000 0.000000
vn 0.000000 1.000000 0.000000
vn 0.000000 1.000000 0.000000
vn 0.000000 1.000000 0.000000
o wall_5
usemtl Material_1
f 21//21 22//22 23//23
f 24//24 21//21 23//23
v -4.006331 -1.285867 6.545089
v -4.006331 -1.285867 1.904549
v -4.106331 -1.285867 2.004549
v -4.106331 -1.285867 6.545089
vn 0.000000 1.000000 0.000000
vn 0.000000 1.000000 0.000000
vn 0.000000 1.000000 0.000000
vn 0.000000 1.000000 0.000000
o wall_6
usemtl Material_1
f 25//25 26//26 27//27
f 28//28 25//25 27//27
v -4.006331 -1.285867 1.904549
v -4.006331 2.264472 1.904549
v -4.106331 -1.285867 2.004549
v -4.106331 2.264472 2.004549
v -4.006331 -1.285867 6.545089
v -4.006331 2.264472 6.545089
v -4.106331 -1.285867 6.545089
v -4.106331 2.264472 6.545089
v -4.006331 -1.285160 6.038663
v -4.006331 0.890584 6.038663
v -4.106331 -1.285160 6.038763
v -4.106331 0.890584 6.038763
v -4.006331 -1.285160 4.968583
v -4.006331 0.890584 4.968583
v -4.106331 -1.285160 4.968482
v -4.106331 0.890584 4.968482
v -4.006331 0.890584 6.038663
v -4.006331 0.890584 4.968583
v -4.106331 0.890584 6.038763
v -4.106331 0.890584 4.968482
vn 0.707107 0.000000 0.707106
vn 0.707107 0.000000 0.707106
vn 0.707107 0.000000 0.707106
vn 0.707107 0.000000 0.707106
vn 0.000000 0.000000 -1.000000
vn 0.000000 0.000000 -1.000000
vn 0.000000 0.000000 -1.000000
vn 0.000000 0.000000 -1.000000
vn 0.001001 0.000000 0.999999
vn 0.001001 0.000000 0.999999
vn 0.001001 0.000000 0.999999
vn 0.001001 0.000000 0.999999
vn 0.001001 0.000000 -0.999999
vn 0.001001 0.000000 -0.999999
vn 0.001001 0.000000 -0.999999
vn 0.001001 0.000000 -0.999999
vn 0.000000 1.000000 0.000000
vn 0.000000 1.000000 0.000000
vn 0.000000 1.000000 0.000000
vn 0.000000 1.000000 0.000000
o wall_7
usemtl Material_1
f 30//30 31//31 29//29
f 30//30 32//32 31//31
f 33//33 35//35 34//34
f 35//35 36//36 34//34
f 38//38 39//39 37//37
f 38//38 40//40 39//39
f 41//41 43//43 42//42
f 43//43 44//44 42//42
f 46//46 47//47 45//45
f 46//46 48//48 47//47
v -2.249546 0.284134 5.096774
v 4.417542 0.284134 5.096774
v 4.417542 -1.285867 5.096774
v -2.249546 -1.285867 5.096774
vn 0.000000 0.000000 -1.000000
vn 0.000000 0.000000 -1.000000
vn 0.000000 0.000000 -1.000000
vn 0.000000 0.000000 -1.000000
o wall_8
usemtl Material_4
f 52//52 49//49 50//50
f 52//52 50//50 51//51
v 4.417542 0.284134 5.196774
v -2.249546 0.284134 5.196774
v -2.249546 -1.285867 5.196774
v 4.417542 -1.285867 5.196774
vn 0.000000 0.000000 1.000000
vn 0.000000 0.000000 1.000000
vn 0.000000 0.000000 1.000000
vn 0.000000 0.000000 1.000000
o wall_9
usemtl Material_5
f 56//56 53//53 54//54
f 56//56 54//54 55//55
v 4.417542 0.284134 5.096774
v -2.249546 0.284134 5.096774
v -2.249546 0.284134 5.196774
v 4.417542 0.284134 5.196774
vn 0.000000 1.000000 0.000000
vn 0.000000 1.000000 0.000000
vn 0.000000 1.000000 0.000000
vn 0.000000 1.000000 0.000000
o wall_10
usemtl Material_1
f 60//60 57//57 58//58
f 60//60 58//58 59//59
v 4.417542 -1.285867 5.096774
v -2.249546 -1.285867 5.096774
v -2.249546 -1.285867 5.196774
v 4.417542 -1.285867 5.196774
vn 0.000000 1.000000 0.000000
vn 0.000000 1.000000 0.000000
vn 0.000000 1.000000 0.000000
vn 0.000000 1.000000 0.000000
o wall_11
usemtl Material_1
f 64//64 61//61 62//62
f 64//64 62//62 63//63
v 4.417542 -1.285867 5.096774
v 4.417542 0.284134 5.096774
v 4.417542 -1.285867 5.196774
v 4.417542 0.284134 5.196774
v -2.249546 -1.285867 5.096774
v -2.249546 0.284134 5.096774
v -2.249546 -1.285867 5.196774
v -2.249546 0.284134 5.196774
vn -1.000000 0.000000 0.000000
vn -1.000000 0.000000 0.000000
vn -1.000000 0.000000 0.000000
vn -1.000000 0.000000 0.000000
vn 1.000000 0.000000 0.000000
vn 1.000000 0.000000 0.000000
vn 1.000000 0.000000 0.000000
vn 1.000000 0.000000 0.000000
o wall_12
usemtl Material_1
f 65//65 67//67 66//66
f 67//67 68//68 66//66
f 70//70 71//71 69//69
f 70//70 72//72 71//71
v -4.417542 2.264472 1.904549
v -4.006331 2.264472 1.904549
v -4.006331 -1.285867 1.904549
v -4.417542 -1.285867 1.904549
vn 0.000000 0.000000 -1.000000
vn 0.000000 0.000000 -1.000000
vn 0.000000 0.000000 -1.000000
vn 0.000000 0.000000 -1.000000
o wall_2
usemtl Material_6
f 76//76 73//73 74//74
f 76//76 74//74 75//75
v -4.106331 2.264472 2.004549
v -4.517542 2.264472 2.004549
v -4.517542 -1.285867 2.004549
v -4.106331 -1.285867 2.004549
vn 0.000000 0.000000 1.000000
vn 0.000000 0.000000 1.000000
vn 0.000000 0.000000 1.000000
vn 0.000000 0.000000 1.000000
o wall_13
usemtl Material_7
f 80//80 77//77 78//78
f 80//80 78//78 79//79
v -4.006331 2.264472 1.904549
v -4.417542 2.264472 1.904549
v -4.517542 2.264472 2.004549
v -4.106331 2.264472 2.004549
vn 0.000000 1.000000 0.000000
vn 0.000000 1.000000 0.000000
vn 0.000000 1.000000 0.000000
vn 0.000000 1.000000 0.000000
o wall_14
usemtl Material_1
f 82//82 83//83 84//84
f 84//84 81//81 82//82
v -4.006331 -1.285867 1.904549
v -4.417542 -1.285867 1.904549
v -4.517542 -1.285867 2.004549
v -4.106331 -1.285867 2.004549
vn 0.000000 1.000000 0.000000
vn 0.000000 1.000000 0.000000
vn 0.000000 1.000000 0.000000
vn 0.000000 1.000000 0.000000
o wall_15
usemtl Material_1
f 86//86 87//87 88//88
f 88//88 85//85 86//86
v -4.006331 -1.285867 1.904549
v -4.006331 2.264472 1.904549
v -4.106331 -1.285867 2.004549
v -4.106331 2.264472 2.004549
v -4.417542 -1.285867 1.904549
v -4.417542 2.264472 1.904549
v -4.517542 -1.285867 2.004549
v -4.517542 2.264472 2.004549
vn -0.707107 0.000000 -0.707106
vn -0.707107 0.000000 -0.707106
vn -0.707107 0.000000 -0.707106
vn -0.707107 0.000000 -0.707106
vn 0.707107 0.000000 0.707106
vn 0.707107 0.000000 0.707106
vn 0.707107 0.000000 0.707106
vn 0.707107 0.000000 0.707106
o wall_16
usemtl Material_1
f 89//89 91//91 90//90
f 91//91 92//92 90//90
f 94//94 95//95 93//93
f 94//94 96//96 95//95
v -4.417542 2.264472 -6.545089
v -4.417542 2.264472 1.904549
v -4.417542 -1.285867 1.904549
v -4.417542 -1.285867 -6.545089
vn 1.000000 0.000000 0.000000
vn 1.000000 0.000000 0.000000
vn 1.000000 0.000000 0.000000
vn 1.000000 0.000000 0.000000
o wall_3
usemtl Material_8
f 100//100 97//97 98//98
f 100//100 98//98 99//99
v -4.517542 2.264472 2.004549
v -4.517542 2.264472 -6.545089
v -4.517542 -1.285867 -6.545089
v -4.517542 -1.285867 2.004549
vn -1.000000 0.000000 0.000000
vn -1.000000 0.000000 0.000000
vn -1.000000 0.000000 0.000000
vn -1.000000 0.000000 0.000000
o wall_17
usemtl Material_9
f 104//104 101//101 102//102
f 104//104 102//102 103//103
v -4.417542 2.264472 1.904549
v -4.417542 2.264472 -6.545089
v -4.517542 2.264472 -6.545089
v -4.517542 2.264472 2.004549
vn 0.000000 1.000000 0.000000
vn 0.000000 1.000000 0.000000
vn 0.000000 1.000000 0.000000
vn 0.000000 1.000000 0.000000
o wall_18
usemtl Material_1
f 107//107 108//108 105//105
f 107//107 105//105 106//106
v -4.417542 -1.285867 1.904549
v -4.417542 -1.285867 -6.545089
v -4.517542 -1.285867 -6.545089
v -4.517542 -1.285867 2.004549
vn 0.000000 1.000000 0.000000
vn 0.000000 1.000000 0.000000
vn 0.000000 1.000000 0.000000
vn 0.000000 1.000000 0.000000
o wall_19
usemtl Material_1
f 111//111 112//112 109//109
f 111//111 109//109 110//110
v -4.417542 -1.285867 1.904549
v -4.417542 2.264472 1.904549
v -4.517542 -1.285867 2.004549
v -4.517542 2.264472 2.004549
v -4.417542 -1.285867 -6.545089
v -4.417542 2.264472 -6.545089
v -4.517542 -1.285867 -6.545089
v -4.517542 2.264472 -6.545089
vn -0.707107 0.000000 -0.707106
vn -0.707107 0.000000 -0.707106
vn -0.707107 0.000000 -0.707106
vn -0.707107 0.000000 -0.707106
vn 0.000000 0.000000 1.000000
vn 0.000000 0.000000 1.000000
vn 0.000000 0.000000 1.000000
vn 0.000000 0.000000 1.000000
o wall_20
usemtl Material_1
f 113//113 115//115 114//114
f 115//115 116//116 114//114
f 118//118 119//119 117//117
f 118//118 120//120 119//119
v 4.417542 -1.184866 5.096774
v -2.249546 -1.184866 5.096774
v -4.006331 -1.184866 5.096774
v -4.006331 -1.184866 1.904549
v -4.417542 -1.184866 1.904549
v -4.417542 -1.184866 -6.545089
v 4.417542 -1.184866 -6.545089
vt 3.679812 -3.245613
vt -1.873871 -3.245613
vt -3.337274 -3.245613
vt -3.337274 -0.586489
vt -3.679812 -0.586489
vt -3.679812 6.452059
vt 3.679812 6.452059
vn 0.000000 1.000000 0.000000
vn 0.000000 1.000000 0.000000
vn 0.000000 1.000000 0.000000
vn 0.000000 1.000000 0.000000
vn 0.000000 1.000000 0.000000
vn 0.000000 1.000000 0.000000
vn 0.000000 1.000000 0.000000
o floor_Other_1
usemtl Material_13
f 126/6/126 125/5/125 124/4/124
f 127/7/127 126/6/126 124/4/124
f 121/1/121 127/7/127 124/4/124
f 122/2/122 121/1/121 124/4/124
f 123/3/123 122/2/122 124/4/124
v 4.417542 -1.184866 5.096774
v -2.249546 -1.184866 5.096774
v -4.006331 -1.184866 5.096774
v -4.006331 -1.184866 1.904549
v -4.417542 -1.184866 1.904549
v -4.417542 -1.184866 -6.545089
v 4.417542 -1.184866 -6.545089
v 4.417542 -1.284866 5.096774
v -2.249546 -1.284866 5.096774
v -4.006331 -1.284866 5.096774
v -4.006331 -1.284866 1.904549
v -4.417542 -1.284866 1.904549
v -4.417542 -1.284866 -6.545089
v 4.417542 -1.284866 -6.545089
vn 0.777399 0.000000 0.222601
vn 0.000000 0.000000 1.000000
vn -0.476040 0.000000 0.523960
vn -0.939489 0.000000 0.060511
vn -0.911301 0.000000 0.088699
vn -0.656681 0.000000 -0.343319
vn 0.397170 0.000000 -0.602830
vn 0.009554 -0.979503 0.010943
vn 0.000000 -0.963522 0.036478
vn -0.099413 -0.873233 0.027355
vn -0.001569 -0.998027 0.000404
vn -0.324635 -0.667466 0.007899
vn -0.010465 -0.967649 -0.021885
vn 0.013234 -0.981744 -0.005022
o floor_Other_2
usemtl Material_12
f 138//138 139//139 140//140
f 138//138 140//140 141//141
f 138//138 141//141 135//135
f 138//138 135//135 136//136
f 138//138 136//136 137//137
f 128//128 129//129 135//135
f 136//136 135//135 129//129
f 129//129 130//130 136//136
f 137//137 136//136 130//130
f 130//130 131//131 137//137
f 138//138 137//137 131//131
f 131//131 132//132 138//138
f 139//139 138//138 132//132
f 132//132 133//133 139//139
f 140//140 139//139 133//133
f 133//133 134//134 140//140
f 141//141 140//140 134//134
f 134//134 128//128 141//141
f 135//135 141//141 128//128

